{"title":"The.Don.of.Dons.2014.AR-SUB.HDRip.XviD.AC3-N33B","uid":12153530,"size":683834683,"categoryP":"video","categoryS":"movies","magnet":"?xt=urn:btih:6a630b278fab87f894b346f939196e58eac27709&amp;dn=The.Don.of.Dons.2014.AR-SUB.HDRip.XviD.AC3-N33B&amp;tr=udp%3A%2F%2Ftracker.openbittorrent.com%3A80&amp;tr=udp%3A%2F%2Fopen.demonii.com%3A1337&amp;tr=udp%3A%2F%2Ftracker.coppersurfer.tk%3A6969&amp;tr=udp%3A%2F%2Fexodus.desync.com%3A6969","seeders":0,"leechers":0,"uploader":"TvTeam","files":4,"time":1437700052,"description":"------------------------------------------------------------------------\n\n &lt;a href=&quot; https://www.torrenting.com&quot; rel=&quot;nofollow&quot; target=&quot;_NEW&quot;&gt; https://www.torrenting.com&lt;/a&gt;\n\nSign up is OPEN - for time being. Come and have fun\n\n.......................................................................................................................[img]http://s28.postimg.org/kzzmbg63h/m_Lus_ZPa.jpg[/img]\n\nThe.Don.of.Dons.2014.AR-SUB.HDRip.XviD.AC3-N33B\n\nSource was a 720p &lt;a href=&quot;\nhttp://www.imdb.com/title/tt3151078/&quot; rel=&quot;nofollow&quot; target=&quot;_NEW&quot;&gt;\nhttp://www.imdb.com/title/tt3151078/&lt;/a&gt;\n\nGeneral\nComplete name                            : The.Don.of.Dons.2014.AR-SUB.HDRip.XviD.AC3-N33B.avi\nFormat                                   : AVI\nFormat/Info                              : Audio Video Interleave\nFile size                                : 631 MiB\nDuration                                 : 1h 3mn\nOverall bit rate                         : 1 394 Kbps\n\nVideo\nID                                       : 0\nFormat                                   : MPEG-4 Visual\nFormat profile                           : Advanced Simple@L5\nFormat settings, BVOP                    : 2\nFormat settings, QPel                    : No\nFormat settings, GMC                     : No warppoints\nFormat settings, Matrix                  : Default (H.263)\nMuxing mode                              : Packed bitstream\nCodec ID                                 : XVID\nCodec ID/Hint                            : XviD\nDuration                                 : 1h 3mn\nBit rate                                 : 1 130 Kbps\nWidth                                    : 720 pixels\nHeight                                   : 400 pixels\nDisplay aspect ratio                     : 16:9\nFrame rate                               : 25.000 fps\nColor space                              : YUV\nChroma subsampling                       : 4:2:0\nBit depth                                : 8 bits\nScan type                                : Progressive\nCompression mode                         : Lossy\nBits/(Pixel*Frame)                       : 0.157\nStream size                              : 511 MiB (81%)\nWriting library                          : XviD 64\n\nAudio\nID                                       : 1\nFormat                                   : AC-3\nFormat/Info                              : Audio Coding 3\nMode extension                           : CM (complete main)\nFormat settings, Endianness              : Big\nCodec ID                                 : 2000\nDuration                                 : 1h 3mn\nBit rate mode                            : Constant\nBit rate                                 : 256 Kbps\nChannel(s)                               : 2 channels\nChannel positions                        : Front: L R\nSampling rate                            : 44.1 KHz\nCompression mode                         : Lossy\nStream size                              : 116 MiB (18%)\nAlignment                                : Aligned on interleaves\nInterleave, duration                     : 70 ms (1.74 video frames)\nInterleave, preload duration             : 209 ms\n\n[img]http://s23.postimg.org/oguq6b38b/vlcsnap_2015_07_24_00h47m15s596.jpg[/img]\n[img]http://s23.postimg.org/yth0sdwrf/vlcsnap_2015_07_24_00h47m30s885.jpg[/img]\n[img]http://s23.postimg.org/3p29bbcij/vlcsnap_2015_07_24_00h47m36s869.jpg[/img]\n[img]http://s23.postimg.org/f7nyig4yj/vlcsnap_2015_07_24_00h47m41s849.jpg[/img]\n[img]http://s23.postimg.org/pzq4ba9sr/vlcsnap_2015_07_24_00h48m31s994.jpg[/img]\n[img]http://s23.postimg.org/lo1ima2vv/vlcsnap_2015_07_24_00h49m14s117.jpg[/img]","torrent":{"xt":"urn:btih:6a630b278fab87f894b346f939196e58eac27709","amp;dn":"The.Don.of.Dons.2014.AR-SUB.HDRip.XviD.AC3-N33B","amp;tr":["udp%3A%2F%2Ftracker.openbittorrent.com%3A80","udp%3A%2F%2Fopen.demonii.com%3A1337","udp%3A%2F%2Ftracker.coppersurfer.tk%3A6969","udp%3A%2F%2Fexodus.desync.com%3A6969"],"infoHash":"6a630b278fab87f894b346f939196e58eac27709","infoHashBuffer":{"type":"Buffer","data":[106,99,11,39,143,171,135,248,148,179,70,249,57,25,110,88,234,194,119,9]},"announce":[],"urlList":[]}}